<?xml version="1.0" standalone="no"?>
<!DOCTYPE svg PUBLIC "-//W3C//DTD SVG 20010904//EN"
 "http://www.w3.org/TR/2001/REC-SVG-20010904/DTD/svg10.dtd">
<svg version="1.0" xmlns="http://www.w3.org/2000/svg"
 width="260.000000pt" height="260.000000pt" viewBox="0 0 260.000000 260.000000"
 preserveAspectRatio="xMidYMid meet">
<metadata>
Created by potrace 1.11, written by Peter Selinger 2001-2013
</metadata>
<g transform="translate(0.000000,260.000000) scale(0.100000,-0.100000)"
fill="#000000" stroke="none">
<path d="M1279 2010 c-8 -5 -55 -68 -105 -140 -315 -460 -314 -459 -335 -460
-4 0 -96 68 -205 151 -110 82 -210 159 -224 169 -14 10 -97 73 -184 139 -223
169 -248 164 -211 -39 5 -27 54 -334 60 -375 10 -62 15 -95 25 -155 16 -93 49
-303 72 -450 8 -58 17 -82 39 -108 16 -18 29 -29 29 -25 0 4 7 0 14 -10 13
-16 14 -16 27 0 12 15 12 16 -4 10 -12 -5 -16 -3 -11 5 4 6 3 8 -3 5 -6 -4
-18 -1 -27 6 -16 12 -15 14 8 36 15 14 26 19 26 12 0 -7 5 -9 10 -6 6 4 8 10
6 14 -3 4 8 7 25 6 20 -1 28 2 25 11 -3 9 4 11 25 9 20 -3 27 0 23 7 -4 7 -3
8 4 4 7 -4 20 -3 29 2 13 8 25 4 49 -14 20 -16 35 -21 39 -15 3 6 2 11 -2 11
-5 0 -18 7 -29 15 -16 13 -16 14 -2 9 12 -4 18 -1 18 7 0 9 3 10 8 3 11 -17
42 -25 36 -10 -7 19 22 27 36 10 7 -8 20 -14 28 -14 13 0 12 3 -4 16 -16 14
-15 14 9 -1 26 -15 28 -15 25 1 -2 9 4 19 12 21 12 4 12 3 1 -5 -11 -8 -11
-11 0 -16 11 -5 11 -7 2 -12 -19 -8 -16 -20 6 -21 15 -1 18 4 16 23 -1 17 4
28 19 35 18 9 19 8 5 -3 -14 -11 -14 -15 -2 -26 7 -7 10 -18 7 -24 -5 -8 -1
-9 10 -5 10 4 20 7 23 7 2 0 -2 7 -11 15 -8 9 -13 22 -9 31 5 12 8 12 20 -3
11 -13 13 -14 10 -3 -4 12 5 16 44 16 27 0 49 -4 49 -9 0 -4 4 -6 9 -2 5 3 12
1 16 -5 3 -5 11 -10 17 -10 7 0 6 5 -1 14 -9 11 -9 16 0 22 7 4 9 3 6 -3 -4
-6 0 -16 8 -23 8 -7 13 -15 11 -19 -3 -4 4 -12 15 -19 24 -15 24 -4 -1 28 -21
27 -28 53 -7 29 6 -8 24 -25 40 -38 21 -19 27 -21 27 -9 0 9 -14 22 -30 30
-17 7 -30 16 -30 19 0 9 72 5 86 -4 7 -4 15 0 18 9 6 15 8 15 25 0 11 -10 22
-13 25 -8 3 6 0 13 -6 15 -8 4 -9 6 -2 6 6 1 17 -6 24 -14 7 -8 17 -15 22 -15
7 0 6 5 0 13 -8 10 -6 13 11 14 15 2 18 0 8 -6 -11 -7 -11 -9 0 -13 8 -3 20 2
27 11 11 14 12 13 3 -6 -14 -29 -14 -33 4 -27 8 3 14 9 13 12 -2 23 7 28 51
28 27 0 47 -4 45 -8 -3 -4 -10 -5 -18 -2 -7 3 -13 -2 -13 -11 0 -19 7 -19 37
2 30 21 151 28 123 7 -15 -10 -13 -11 10 -11 14 0 25 4 24 10 -1 6 8 12 20 13
16 1 20 -3 15 -15 -4 -13 0 -12 18 4 13 11 20 14 15 6 -6 -11 -4 -13 8 -8 9 3
19 2 22 -4 4 -5 11 -6 17 -3 6 4 5 10 -3 16 -11 8 -11 9 1 5 8 -2 15 -9 15
-15 0 -16 15 -27 16 -11 1 8 1 18 0 23 -1 5 5 4 13 -3 8 -7 20 -10 26 -6 6 4
17 1 25 -5 12 -10 15 -10 15 1 1 8 8 2 16 -14 8 -15 12 -32 9 -37 -3 -6 -1
-10 4 -10 6 0 11 5 11 11 0 5 5 7 10 4 16 -10 12 7 -5 19 -10 8 -12 15 -5 26
6 10 10 11 10 3 0 -7 5 -13 11 -13 5 0 7 6 3 13 -6 9 -4 9 8 -1 13 -10 17 -10
21 0 4 8 6 7 6 -4 1 -10 5 -18 11 -18 5 0 8 6 6 13 -1 6 -1 9 1 6 2 -3 17 -4
33 -3 28 2 29 1 15 -20 -14 -21 -11 -36 6 -36 5 0 6 6 3 13 -2 7 5 22 17 33
13 10 19 13 15 7 -9 -17 6 -17 24 0 12 10 12 9 1 -5 -13 -17 -2 -26 13 -11 10
10 46 14 46 5 0 -4 9 -8 20 -9 13 -1 18 2 14 9 -5 7 -2 8 7 2 8 -5 23 -9 34
-9 11 0 21 -7 21 -15 3 -32 5 -34 15 -17 5 9 7 23 4 30 -4 6 3 1 15 -13 17
-19 20 -21 16 -6 -5 15 -4 17 8 7 8 -7 16 -8 18 -4 6 10 0 -12 -7 -30 -4 -8 1
-14 10 -14 9 0 14 6 11 14 -3 7 3 17 14 23 15 8 21 6 30 -10 7 -12 16 -17 27
-13 15 6 14 7 -3 14 -16 6 -16 8 -2 8 9 1 20 -4 24 -10 3 -6 16 -8 28 -5 19 5
20 4 3 -8 -16 -12 -16 -14 -1 -20 22 -8 26 -8 19 3 -3 5 0 13 6 17 8 5 9 3 4
-6 -6 -10 -4 -12 8 -7 18 7 42 -24 29 -38 -4 -4 0 -6 8 -3 8 3 14 14 13 24 -1
10 0 13 3 6 3 -6 9 -10 13 -8 4 3 7 -8 6 -24 0 -15 -4 -26 -9 -23 -5 4 -6 0
-1 -8 7 -12 6 -12 -7 -1 -11 9 -18 10 -23 2 -3 -5 0 -10 7 -10 9 0 9 -3 -2
-10 -10 -7 -11 -10 -2 -10 7 0 32 18 55 40 43 39 43 39 61 157 10 65 20 127
22 138 2 11 26 164 54 340 28 176 53 334 56 350 3 17 7 41 9 55 2 14 9 57 16
97 25 148 -8 159 -151 52 -52 -40 -222 -168 -378 -286 -156 -118 -289 -216
-295 -219 -7 -2 -20 1 -29 8 -8 7 -100 137 -203 288 -170 251 -215 311 -234
310 -3 0 -13 -5 -22 -10z"/>
<path d="M1024 884 c6 -13 -18 -27 -29 -16 -9 10 -55 10 -49 0 3 -4 9 -6 13
-3 6 3 31 -35 31 -49 0 -10 -37 0 -50 14 -8 9 -11 10 -7 3 16 -23 -3 -34 -28
-17 -14 9 -22 21 -18 27 3 6 1 7 -5 3 -7 -4 -18 -4 -24 1 -7 4 -17 8 -23 9 -5
1 -18 5 -27 9 -11 4 -18 3 -18 -5 0 -6 4 -9 8 -6 5 3 9 -1 9 -9 0 -8 -4 -15
-9 -15 -4 0 -8 5 -8 12 0 20 -14 -2 -17 -28 l-4 -26 31 32 c19 19 30 25 30 16
0 -9 7 -13 20 -11 11 2 20 -1 20 -6 0 -6 5 -7 12 -3 7 4 8 3 4 -5 -4 -6 -11
-9 -16 -6 -5 3 -11 1 -15 -5 -3 -5 -3 -10 2 -11 4 0 19 -2 33 -5 19 -3 21 -2
10 5 -8 6 -11 13 -7 18 5 4 12 1 17 -7 10 -16 -16 -44 -31 -34 -5 3 -9 1 -9
-5 0 -5 4 -13 10 -16 12 -7 60 38 60 56 0 7 7 4 15 -7 14 -19 14 -19 15 1 0
11 4 16 8 10 4 -5 16 -12 26 -13 18 -3 18 -2 5 14 -11 14 -11 16 0 10 9 -6 12
-5 9 5 -3 8 -11 13 -17 11 -19 -4 -3 17 22 28 20 10 21 10 4 -3 -10 -9 -14
-18 -9 -21 5 -3 15 1 23 10 10 12 9 18 -6 32 -10 9 -15 12 -11 6z"/>
<path d="M1175 880 c-2 -3 -1 -11 3 -17 5 -8 14 -7 32 2 14 8 23 15 20 15 -22
6 -52 6 -55 0z"/>
<path d="M1280 874 c-6 -6 -7 -13 -4 -16 3 -3 -12 -6 -33 -6 -21 -1 -53 -3
-72 -5 -21 -2 -35 1 -38 10 -3 8 -12 12 -21 8 -8 -3 -20 -1 -27 5 -9 8 -17 3
-31 -17 -10 -16 -17 -31 -16 -35 1 -5 -2 -8 -6 -8 -5 0 -9 -7 -9 -15 0 -8 3
-13 5 -10 3 3 11 0 19 -6 16 -14 18 2 1 19 -9 9 -8 13 5 17 9 4 14 14 10 23
-3 10 -1 13 4 7 11 -13 47 -19 39 -6 -4 5 -1 13 5 17 8 5 9 3 4 -6 -6 -9 -4
-11 6 -5 12 7 12 6 1 -7 -10 -13 -10 -17 4 -22 11 -4 15 -2 11 7 -3 8 1 14 8
14 8 0 11 -7 7 -16 -3 -9 -2 -13 3 -9 4 4 14 3 22 -3 17 -14 17 2 1 21 -7 8
-9 12 -4 8 5 -4 18 -3 30 3 18 9 19 8 6 -3 -14 -12 -14 -15 4 -32 19 -19 19
-19 13 3 -4 15 1 24 16 32 20 9 20 9 5 -4 -15 -12 -15 -14 4 -26 18 -11 20
-11 15 2 -3 9 1 21 8 27 8 7 12 17 8 23 -3 5 -1 7 5 4 12 -8 42 2 42 13 0 12
-39 8 -50 -6z m-195 -14 c3 -5 1 -10 -4 -10 -6 0 -11 5 -11 10 0 6 2 10 4 10
3 0 8 -4 11 -10z"/>
<path d="M1340 879 c0 -4 -16 -16 -36 -28 -19 -12 -32 -26 -29 -31 11 -18 -6
-32 -23 -18 -9 8 -13 8 -9 2 8 -13 -11 -23 -31 -17 -6 3 -9 10 -5 16 5 8 2 8
-8 0 -12 -10 -18 -10 -27 -1 -8 8 -12 8 -12 1 0 -15 27 -36 38 -29 6 3 15 -1
22 -9 7 -8 17 -15 22 -15 6 0 5 6 -2 15 -10 12 -8 14 9 10 12 -2 21 0 21 6 0
5 6 8 13 7 7 -2 12 8 11 24 0 15 4 25 8 22 4 -3 8 1 8 8 0 9 3 9 10 -2 8 -13
10 -13 10 1 0 17 28 34 38 24 3 -3 0 -5 -7 -5 -7 0 -9 -5 -5 -12 4 -6 3 -8 -3
-5 -6 4 -14 0 -17 -9 -3 -8 -10 -12 -16 -9 -5 3 -10 1 -10 -4 0 -15 23 -14 38
1 9 9 15 9 24 0 7 -7 19 -12 27 -12 11 0 10 4 -5 15 -13 9 -20 23 -19 37 2 17
-2 24 -16 24 -11 0 -19 -3 -19 -7z"/>
<path d="M1433 878 c1 -7 -6 -13 -15 -13 -23 0 -43 -21 -29 -29 6 -4 11 -4 11
1 0 4 7 -3 16 -15 8 -12 20 -20 25 -17 13 9 11 26 -2 23 -6 -2 -14 4 -16 12
-3 12 -2 12 5 2 12 -18 35 9 26 32 -7 19 -25 22 -21 4z m17 -18 c0 -5 -5 -10
-11 -10 -5 0 -7 5 -4 10 3 6 8 10 11 10 2 0 4 -4 4 -10z"/>
<path d="M1467 856 c-6 -12 -10 -25 -9 -30 2 -5 -5 -18 -15 -29 -10 -11 -12
-17 -6 -13 9 5 11 2 6 -10 -4 -12 -3 -15 6 -10 7 5 10 15 7 23 -4 9 -2 11 6 7
7 -4 8 -3 4 4 -5 8 -1 10 11 5 15 -6 16 -4 6 8 -7 9 -8 20 -3 29 5 8 7 17 5
20 -2 3 5 6 16 6 19 0 19 -1 3 -13 -10 -7 -15 -16 -11 -19 9 -9 39 16 34 29
-6 19 -48 14 -60 -7z"/>
<path d="M1587 864 c2 -7 -1 -15 -8 -20 -8 -4 -10 -3 -5 4 5 8 2 10 -8 6 -9
-4 -16 -1 -16 6 0 7 -10 1 -21 -14 -13 -17 -27 -25 -37 -21 -11 4 -12 2 -4 -7
8 -10 3 -20 -18 -41 -26 -27 -29 -27 -38 -10 -10 17 -12 25 -12 41 0 4 -5 0
-10 -8 -6 -10 -4 -21 8 -34 9 -11 12 -17 7 -13 -6 3 -17 2 -25 -3 -9 -5 -20
-5 -28 2 -9 8 -16 8 -24 0 -7 -7 -17 -8 -29 -2 -12 7 -20 6 -24 0 -4 -6 -15
-8 -25 -5 -10 3 -22 0 -26 -6 -4 -7 -3 -9 3 -6 6 4 9 -4 7 -19 -1 -16 2 -24 9
-21 7 2 11 11 9 19 -3 19 29 29 51 17 11 -7 19 -4 26 8 11 17 11 17 22 0 7
-12 15 -15 27 -8 9 4 23 6 31 3 9 -3 11 0 6 8 -5 8 -4 11 2 7 6 -4 25 7 42 24
17 16 36 27 41 24 6 -3 10 -2 10 4 0 5 -3 11 -7 14 -5 2 -3 2 4 1 7 -2 10 3 7
10 -3 7 2 13 10 13 11 0 13 -5 5 -18 -12 -24 -12 -26 6 -26 9 0 14 6 11 14 -3
8 5 18 19 25 13 6 22 14 20 19 -9 13 16 22 28 10 9 -9 7 -11 -8 -5 -16 5 -18
4 -8 -6 6 -7 9 -19 6 -26 -4 -10 0 -12 11 -8 9 4 15 9 12 12 -3 2 -1 13 5 23
5 11 6 19 2 18 -4 -1 -10 0 -13 1 -18 9 -57 4 -53 -6z"/>
<path d="M745 852 c-4 -12 -8 -12 -23 -1 -16 13 -16 12 -1 -6 9 -11 15 -25 12
-31 -2 -6 3 -11 11 -11 8 0 13 4 10 8 -2 4 2 10 8 12 10 4 10 6 1 6 -7 1 -13
6 -13 11 0 6 5 9 11 8 6 -2 13 2 16 8 2 6 -3 11 -11 11 -8 0 -18 -7 -21 -15z"/>
<path d="M1719 863 c-1 -4 -2 -12 -4 -18 -1 -5 -3 -15 -3 -21 -1 -6 -17 -10
-34 -11 -18 0 -40 -2 -48 -4 -9 -2 -15 2 -14 13 1 10 -4 14 -12 11 -8 -3 -11
-10 -7 -16 4 -7 0 -8 -12 -3 -15 5 -16 4 -5 -9 12 -14 8 -17 -16 -14 -11 1
-22 -24 -17 -38 3 -7 9 -10 14 -7 5 3 7 9 4 14 -8 14 46 37 78 34 18 -2 25 1
21 8 -4 7 -2 8 5 4 6 -4 9 -12 6 -17 -4 -5 -1 -9 4 -9 6 0 11 8 11 18 0 9 4
13 8 7 12 -17 35 -17 28 0 -3 9 1 18 9 21 8 4 12 11 8 17 -3 6 -1 7 6 3 6 -4
9 -11 6 -16 -3 -4 2 -11 11 -14 12 -4 15 -2 11 9 -4 8 -1 17 6 21 7 4 9 4 5
-1 -4 -4 -3 -14 3 -22 9 -10 8 -13 -2 -13 -9 -1 -8 -5 5 -15 22 -17 40 -20 31
-6 -7 12 29 33 40 23 5 -4 5 1 2 11 -5 14 -3 16 12 8 12 -7 17 -19 15 -36 -2
-22 1 -25 14 -19 9 4 26 7 38 7 11 0 21 6 21 14 0 8 -6 12 -14 9 -8 -3 -16 1
-19 9 -4 8 -9 13 -13 11 -4 -3 -13 -1 -20 3 -9 6 -10 11 -2 15 6 4 11 3 11 -2
0 -5 7 -9 15 -9 19 0 14 22 -6 23 -8 0 -19 -4 -26 -9 -7 -5 -20 -4 -32 2 -21
12 -38 0 -26 -18 9 -15 -15 -25 -28 -12 -15 15 -16 34 -2 43 6 5 4 8 -5 8 -9
0 -21 -5 -27 -11 -8 -8 -17 -8 -32 0 -12 7 -22 8 -22 4z m206 -63 c3 -5 1 -10
-4 -10 -6 0 -11 5 -11 10 0 6 2 10 4 10 3 0 8 -4 11 -10z"/>
<path d="M545 840 c-3 -5 2 -10 12 -10 15 0 16 -2 3 -10 -8 -5 -23 -7 -34 -4
-11 4 -16 2 -12 -4 3 -6 2 -13 -4 -17 -5 -3 -10 -11 -10 -16 0 -6 8 -3 17 6
15 16 18 16 28 1 7 -9 15 -13 18 -9 4 3 2 12 -4 19 -8 10 -6 12 10 9 18 -3 20
-1 11 15 -13 25 -27 33 -35 20z"/>
<path d="M1655 840 c-3 -5 -1 -10 4 -10 6 0 11 5 11 10 0 6 -2 10 -4 10 -3 0
-8 -4 -11 -10z"/>
<path d="M1947 830 c-4 -17 -3 -19 9 -9 13 11 19 3 16 -23 -2 -11 24 -16 39
-7 14 8 12 10 -13 13 -6 0 -13 8 -15 16 -4 13 -3 13 6 0 10 -13 15 -8 12 12 0
4 6 5 14 2 8 -4 15 -2 15 3 0 5 -11 9 -25 9 -14 0 -25 -4 -25 -9 0 -5 -6 -4
-14 2 -11 9 -15 7 -19 -9z"/>
<path d="M415 818 c-22 -13 -35 -28 -35 -43 1 -5 7 -1 15 9 24 31 49 29 64 -5
7 -17 16 -28 19 -25 3 4 16 -1 30 -10 18 -12 23 -13 20 -2 -3 7 -1 22 5 33 10
19 9 19 -10 2 -19 -17 -21 -17 -37 5 -9 13 -14 16 -10 8 3 -8 -4 -3 -17 12
-20 23 -27 26 -44 16z"/>
<path d="M604 822 c-5 -4 -10 -16 -12 -27 l-3 -20 17 20 c15 18 16 18 10 1 -5
-14 -3 -17 11 -12 9 4 20 1 24 -5 8 -13 67 -20 84 -10 21 12 33 9 28 -7 -5
-14 -2 -13 18 3 13 11 26 21 28 22 3 2 -6 3 -20 2 -28 -1 -50 4 -65 14 -7 4
-14 1 -17 -6 -7 -18 -46 -15 -58 4 -5 8 -9 10 -9 4 0 -5 -6 -2 -13 7 -7 9 -17
14 -23 10z m126 -42 c0 -5 -4 -10 -10 -10 -5 0 -10 5 -10 10 0 6 5 10 10 10 6
0 10 -4 10 -10z"/>
<path d="M1074 815 c-3 -8 -11 -12 -18 -8 -7 4 -6 1 2 -9 7 -8 10 -23 6 -32
-4 -11 -1 -16 10 -16 9 0 16 5 16 11 0 5 -5 7 -12 3 -7 -4 -8 -3 -4 5 4 6 12
9 17 6 12 -8 11 1 -2 28 -9 20 -9 20 4 5 8 -10 17 -15 20 -12 3 3 14 1 24 -5
13 -7 14 -10 4 -11 -11 0 -12 -3 -4 -11 6 -6 9 -18 6 -25 -3 -10 0 -12 10 -8
9 3 14 13 10 22 -4 14 -3 15 6 2 5 -8 12 -12 15 -10 2 3 -7 18 -20 33 -13 15
-24 25 -24 22 0 -3 -14 2 -30 10 -27 14 -31 14 -36 0z"/>
<path d="M2056 815 c-5 -14 -9 -15 -21 -5 -9 7 -18 10 -22 6 -3 -3 -1 -6 6 -6
8 0 11 -6 7 -16 -3 -8 -2 -12 4 -9 6 3 10 4 10 1 0 -3 -10 -10 -21 -17 -12 -6
-19 -7 -16 -2 6 9 -8 9 -80 4 -18 -1 -16 -18 2 -18 8 0 15 5 15 11 0 7 3 7 8
1 9 -13 35 -18 27 -5 -3 5 -2 10 3 10 6 0 13 -7 16 -15 8 -21 43 -3 58 30 11
24 11 24 27 4 16 -20 16 -20 16 5 0 13 -4 22 -9 19 -4 -3 -12 0 -16 7 -5 8 -9
7 -14 -5z"/>
<path d="M802 812 c-9 -6 -5 -12 13 -20 33 -15 30 -16 32 9 2 18 0 19 -14 7
-12 -9 -15 -10 -9 0 8 14 -3 16 -22 4z"/>
<path d="M1334 797 c-10 -13 -16 -18 -11 -11 4 7 1 14 -8 17 -8 4 -14 3 -13
-1 3 -14 -14 -42 -23 -36 -5 3 -9 0 -9 -5 0 -12 13 -14 24 -4 3 4 16 8 27 10
14 2 18 -1 13 -9 -5 -9 -2 -9 9 1 14 11 20 11 34 0 14 -12 16 -12 8 0 -6 11
-4 13 10 7 14 -5 16 -4 7 7 -7 8 -8 18 -4 22 4 5 2 5 -4 2 -7 -4 -14 0 -18 8
-8 21 -19 19 -42 -8z m40 -15 c2 -4 -4 -8 -14 -8 -10 0 -16 4 -14 8 3 4 9 8
14 8 5 0 11 -4 14 -8z"/>
<path d="M1740 805 c7 -8 16 -12 21 -10 14 9 30 -30 17 -43 -9 -9 -9 -12 0
-12 6 0 16 8 21 18 7 11 10 13 11 3 0 -11 3 -11 15 -1 8 6 19 9 25 5 5 -3 13
1 16 9 3 9 9 14 13 12 4 -3 7 4 7 15 0 19 -1 19 -16 -1 -13 -17 -18 -18 -29
-8 -9 8 -12 9 -7 1 12 -22 -16 -26 -42 -6 -15 11 -36 23 -46 26 -16 6 -17 5
-6 -8z"/>
<path d="M2140 805 c11 -14 3 -21 -16 -12 -13 5 -25 -34 -15 -50 10 -17 12
-15 15 16 0 8 8 16 16 18 13 4 13 3 0 -6 -8 -5 -11 -13 -7 -17 3 -4 14 -1 22
6 11 10 13 15 4 20 -8 6 -8 9 0 14 6 4 12 2 12 -3 1 -6 2 -17 3 -23 0 -7 10
-14 21 -16 15 -2 17 -1 6 6 -11 8 -11 10 0 15 11 4 11 6 1 6 -8 1 -10 6 -6 14
4 6 4 9 -1 5 -4 -4 -13 -4 -19 1 -6 4 -20 11 -30 15 -16 5 -17 4 -6 -9z"/>
<path d="M360 801 c13 -9 12 -11 -5 -12 -11 -1 -24 -2 -30 -4 -5 -1 -15 -3
-22 -3 -7 -1 -17 -12 -24 -23 -9 -17 -8 -23 2 -30 8 -4 14 -15 14 -23 0 -9 3
-16 7 -16 4 -1 19 -7 34 -15 14 -7 37 -11 51 -9 15 3 22 1 18 -6 -3 -5 0 -7 8
-4 8 3 18 1 21 -5 4 -5 18 -8 32 -5 14 3 30 1 37 -3 7 -4 26 -8 42 -9 44 -2
103 -12 114 -18 10 -6 25 23 16 32 -3 3 -5 -1 -5 -9 0 -11 -2 -11 -10 1 -8 13
-10 13 -10 1 0 -12 -3 -12 -12 -3 -16 16 -31 15 -22 0 6 -10 4 -10 -7 -2 -8 6
-21 11 -29 11 -8 1 -24 4 -34 9 -13 5 -17 4 -13 -3 8 -13 -18 -11 -30 1 -4 4
-2 6 6 4 7 -2 16 3 19 11 2 8 0 11 -6 7 -6 -3 -1 12 11 34 16 29 27 38 39 34
14 -4 16 -1 12 13 -4 14 -4 15 4 4 8 -11 10 -11 15 0 5 12 6 12 6 0 1 -11 4
-11 19 0 14 11 15 11 5 -1 -18 -20 -16 -35 2 -20 8 7 16 10 16 6 1 -3 2 -10 3
-15 0 -5 4 -13 9 -17 7 -7 11 9 8 31 -1 6 7 1 17 -11 16 -19 19 -19 32 -4 8 9
12 11 8 5 -8 -12 -1 -25 14 -25 5 0 7 4 3 9 -3 5 0 13 6 17 8 4 9 3 5 -4 -13
-21 13 -13 28 9 8 12 19 18 24 15 6 -3 13 0 15 6 4 10 6 10 6 0 1 -7 5 -11 10
-7 10 6 34 -29 26 -37 -2 -2 5 -4 16 -5 11 -1 17 2 14 8 -10 15 2 10 16 -8 10
-11 10 -14 1 -9 -9 5 -11 1 -8 -16 3 -13 5 -27 5 -32 1 -15 15 3 17 22 1 9 4
24 8 33 4 9 2 16 -6 17 -43 3 -71 19 -65 36 7 17 -61 11 -82 -7 -18 -16 -45
-11 -35 5 5 7 2 8 -7 2 -20 -13 -83 -13 -91 -1 -9 15 -70 17 -87 3 -8 -6 -17
-10 -20 -9 -3 2 -6 -3 -7 -10 -2 -26 -5 -27 -31 -10 -15 10 -28 17 -30 16 -7
-6 -41 36 -35 42 4 4 0 5 -8 3 -8 -2 -21 -11 -28 -21 -15 -20 -34 -13 -30 10
2 9 -4 18 -12 20 -13 4 -13 3 0 -6z m41 -35 c11 13 15 14 23 2 6 -8 20 -18 31
-22 16 -6 17 -9 5 -16 -8 -6 -13 -10 -10 -11 3 0 13 -2 23 -4 12 -2 17 1 13
10 -3 9 0 12 9 9 20 -8 27 -34 10 -40 -8 -4 -13 -10 -10 -15 3 -4 -2 -12 -12
-17 -16 -7 -26 -8 -49 -3 -4 0 -1 7 5 15 7 9 8 17 3 20 -6 3 -13 -1 -16 -10
-3 -8 -10 -12 -16 -9 -6 4 -8 10 -5 15 3 4 -2 11 -11 14 -12 5 -14 1 -9 -17 5
-17 4 -19 -4 -7 -10 13 -11 13 -11 0 -1 -12 -3 -11 -11 3 -5 9 -15 17 -20 17
-6 0 -7 -6 -3 -12 6 -10 5 -10 -8 -1 -8 7 -18 11 -22 8 -3 -3 -2 1 4 7 8 9 5
17 -9 28 -16 11 -18 19 -10 30 9 13 10 12 5 -2 -6 -19 9 -25 19 -8 3 5 12 7
21 3 8 -3 14 -2 13 3 -4 22 2 26 20 10 17 -15 19 -15 32 0z"/>
<path d="M352 759 c2 -8 -4 -15 -12 -15 -8 -1 -19 -2 -24 -3 -5 0 -3 -7 3 -14
6 -8 7 -18 3 -22 -4 -5 -1 -5 6 -1 7 4 19 3 26 -3 10 -9 15 -8 20 4 4 12 10
14 25 5 26 -13 34 -13 25 3 -4 6 2 3 14 -7 15 -13 19 -23 12 -31 -7 -8 -5 -12
5 -12 8 0 15 4 15 9 0 5 5 6 12 2 6 -4 8 -3 4 4 -3 6 2 16 11 22 17 10 16 10
-2 8 -11 -2 -23 -7 -26 -12 -4 -5 -12 1 -18 13 -7 11 -9 21 -6 21 3 0 -3 8
-12 18 -12 13 -22 16 -30 9 -16 -12 -17 -27 -2 -27 5 0 7 5 4 10 -3 6 -2 10 4
10 12 0 25 -20 14 -21 -39 -6 -51 -5 -47 6 3 6 -2 18 -11 25 -14 11 -16 11
-13 -1z"/>
<path d="M666 802 c-2 -4 4 -8 14 -8 10 0 16 4 14 8 -3 4 -9 8 -14 8 -5 0 -11
-4 -14 -8z"/>
<path d="M2213 782 c4 -21 1 -35 -7 -38 -6 -2 -12 -15 -13 -27 -2 -21 -1 -21
12 -3 8 10 16 24 18 30 3 7 9 7 20 -3 20 -16 23 -1 5 18 -11 11 -10 12 2 6 13
-7 13 -6 0 6 -8 8 -21 21 -28 29 -12 13 -13 10 -9 -18z"/>
<path d="M928 765 c-9 -12 -14 -26 -11 -29 4 -4 12 3 19 15 10 19 11 16 11
-24 0 -26 -4 -44 -8 -41 -16 10 -9 -9 8 -21 13 -9 13 -14 3 -20 -9 -6 -11 -4
-5 4 6 10 3 11 -12 2 -11 -6 -23 -8 -25 -5 -3 3 -8 -3 -12 -12 -5 -13 -2 -15
11 -9 22 9 63 10 84 1 10 -5 16 -2 16 9 0 9 -6 14 -14 11 -7 -3 -17 4 -23 14
-6 11 -8 20 -4 20 3 0 1 6 -5 14 -9 11 -9 15 1 18 10 4 10 8 2 19 -9 11 -9 17
2 27 10 9 14 9 14 1 0 -8 4 -8 15 1 8 7 12 17 9 22 -4 6 -9 6 -13 2 -9 -13
-33 -16 -40 -6 -3 6 -14 0 -23 -13z"/>
<path d="M1102 765 c-6 -14 -15 -25 -20 -25 -5 0 -9 -7 -9 -15 0 -9 6 -14 13
-11 8 3 18 -2 23 -11 11 -21 42 -27 34 -7 -3 8 -10 11 -16 7 -5 -3 -7 -2 -4 4
4 6 18 9 31 8 14 -2 27 3 30 10 5 13 30 15 42 3 3 -4 3 -12 -2 -19 -5 -9 -11
-7 -21 6 -11 16 -13 16 -13 3 0 -8 7 -21 15 -28 12 -10 16 -9 21 4 3 9 10 13
16 10 5 -3 3 8 -6 24 -9 17 -21 34 -27 38 -7 4 -9 3 -6 -3 3 -5 -9 -17 -28
-26 -33 -16 -54 -9 -40 12 3 5 1 12 -5 16 -6 4 -8 11 -5 16 4 5 2 9 -3 9 -5 0
-14 -11 -20 -25z m17 -21 c-9 -11 -9 -14 1 -14 8 0 11 -3 7 -6 -3 -3 -14 -1
-24 4 -17 10 -17 11 -1 17 10 4 15 12 11 18 -3 6 -1 7 6 3 9 -6 9 -11 0 -22z"/>
<path d="M1469 750 c-40 -37 -68 -53 -54 -30 4 6 -3 6 -18 -1 -21 -10 -25 -20
-18 -47 1 -1 7 3 15 10 10 10 11 15 2 21 -7 6 -6 7 4 4 8 -2 15 -9 15 -14 0
-17 15 -28 16 -12 1 8 1 18 0 22 -1 5 4 5 10 1 8 -5 9 -3 4 7 -5 8 -5 11 0 7
4 -4 14 0 22 10 13 15 13 15 4 -5 -14 -29 -14 -33 3 -27 8 3 13 16 11 29 -1
15 2 22 8 18 6 -3 7 -1 3 5 -3 6 -1 14 5 18 8 4 9 3 5 -4 -8 -13 36 -62 54
-62 6 0 9 3 6 8 -2 4 2 16 10 27 8 10 14 13 14 6 0 -7 5 -9 10 -6 8 5 7 11 0
20 -9 11 -8 13 9 10 14 -2 18 1 15 10 -5 11 -11 11 -29 3 -13 -6 -24 -14 -23
-17 2 -23 -4 -32 -18 -27 -8 3 -12 2 -9 -4 3 -6 4 -10 1 -10 -3 0 -10 10 -17
21 -6 12 -7 19 -2 16 5 -3 9 4 10 16 0 12 -1 16 -4 10 -3 -7 -9 -13 -14 -13
-6 0 -7 5 -4 10 12 20 -4 9 -46 -30z"/>
<path d="M1639 788 c0 -2 -2 -14 -5 -27 -4 -24 -4 -24 18 -5 12 10 18 13 14 7
-4 -8 3 -23 18 -38 29 -29 43 -32 43 -10 0 9 -6 14 -14 11 -13 -6 -37 27 -26
37 11 12 22 -3 16 -20 -6 -15 -5 -16 9 -3 9 8 15 19 15 24 -1 5 5 11 13 13 13
4 13 3 0 -6 -14 -10 -7 -16 14 -12 5 1 1 -9 -8 -24 -9 -14 -12 -25 -7 -25 5 0
13 5 16 10 5 8 11 7 21 -1 11 -9 14 -8 14 2 0 11 2 11 9 1 6 -10 10 -10 21 2
7 9 17 13 22 10 5 -3 18 2 28 11 14 12 20 13 26 4 4 -7 3 -10 -4 -5 -6 3 -13
2 -16 -3 -3 -5 1 -11 9 -15 21 -8 30 13 12 31 -9 10 -20 12 -29 7 -7 -5 -20
-10 -28 -12 -29 -6 -35 -8 -47 -15 -18 -12 -37 2 -24 17 5 6 7 16 3 22 -8 11
-62 15 -62 4 0 -10 -42 -6 -58 4 -7 4 -12 6 -13 4z"/>
<path d="M2048 765 c-10 -13 -14 -26 -11 -29 4 -4 13 4 21 16 7 13 11 15 8 6
-3 -11 0 -15 8 -12 7 3 20 -11 31 -36 10 -22 20 -38 23 -35 2 2 14 -2 26 -10
24 -17 36 -19 36 -5 0 6 -3 9 -7 8 -16 -5 -62 34 -56 48 3 8 9 14 15 14 5 0 6
-5 3 -10 -4 -6 2 -9 14 -7 23 4 41 17 23 17 -7 0 -11 3 -11 8 4 21 -4 21 -30
2 l-30 -21 -12 23 c-23 42 -33 47 -51 23z"/>
<path d="M2290 782 c0 -7 -4 -10 -10 -7 -11 7 -11 9 -14 -60 -2 -27 -1 -45 1
-38 2 7 11 9 19 6 8 -3 14 0 14 6 0 20 2 26 11 38 7 7 6 14 -1 18 -6 3 -8 10
-6 14 3 4 1 13 -5 21 -6 11 -9 12 -9 2z m5 -55 c-8 -4 -12 -15 -9 -25 4 -13 3
-12 -7 2 -9 16 -9 21 0 24 9 3 9 8 -1 20 -12 14 -11 14 9 1 18 -11 20 -15 8
-22z"/>
<path d="M1007 758 c-16 -16 -28 -21 -30 -15 -2 7 -3 -7 -3 -30 0 -39 11 -53
11 -15 0 9 6 16 14 14 8 -2 11 3 8 12 -7 17 28 42 37 27 8 -13 -4 -20 -22 -13
-14 5 -15 4 -2 -10 8 -9 18 -14 22 -12 4 3 11 -4 17 -13 9 -16 10 -15 8 5 -1
12 -5 22 -10 22 -4 0 -6 4 -3 9 3 4 -1 16 -8 26 -13 18 -15 17 -39 -7z"/>
<path d="M241 756 c-9 -10 -8 -15 4 -20 8 -3 15 -4 15 -2 0 3 3 11 6 20 8 20
-9 21 -25 2z"/>
<path d="M2335 749 c-4 -6 -5 -12 -2 -15 2 -3 7 2 10 11 7 17 1 20 -8 4z"/>
<path d="M595 741 c-4 -7 -13 -10 -21 -7 -8 3 -20 -6 -29 -24 -14 -27 -14 -30
7 -44 17 -12 24 -13 30 -3 11 17 10 27 -3 27 -5 0 -8 -4 -5 -8 3 -5 -1 -9 -9
-9 -12 0 -12 3 -2 16 9 12 9 13 0 7 -8 -4 -13 -2 -13 4 0 7 8 9 20 5 13 -4 20
-2 18 5 -2 7 4 15 12 17 11 3 12 2 2 -4 -10 -7 -8 -14 8 -28 20 -18 29 -8 10
11 -7 7 -6 11 5 11 8 0 13 -3 10 -5 -3 -3 3 -11 13 -18 12 -9 19 -9 24 -1 5 8
12 6 25 -6 18 -15 21 -15 43 0 18 12 22 13 16 2 -4 -8 0 -5 8 5 11 14 16 15
16 6 0 -10 3 -11 11 -3 6 6 18 9 25 6 10 -3 12 0 8 10 -3 9 -11 15 -17 13 -7
-1 -9 -1 -4 1 4 3 7 9 7 15 0 5 -13 -1 -29 -15 -22 -18 -39 -23 -73 -22 -52 2
-71 11 -61 28 4 8 1 7 -9 -1 -14 -11 -18 -10 -26 4 -7 12 -11 13 -17 5z"/>
<path d="M825 731 c11 -28 10 -36 -5 -37 -8 -1 -18 -3 -22 -4 -5 -1 -11 -3
-15 -4 -5 -1 -14 -5 -20 -9 -7 -5 -13 -6 -13 -2 0 3 -9 1 -19 -5 -15 -7 -23
-6 -35 5 -10 10 -17 12 -21 5 -5 -8 -11 -8 -20 0 -10 8 -15 8 -20 0 -5 -8 -12
-7 -24 4 -16 15 -18 14 -16 -6 1 -18 8 -22 38 -23 20 -1 37 2 37 7 0 4 4 8 9
8 4 0 8 -12 7 -27 -1 -23 4 -28 25 -30 18 -1 30 5 38 20 11 21 11 21 5 -3 -6
-22 -5 -23 9 -11 13 10 14 17 6 33 -9 16 -8 19 2 13 8 -6 10 -4 5 6 -4 8 -1 6
7 -3 16 -20 29 -14 20 9 -5 12 -2 12 15 -2 11 -10 18 -23 16 -30 -3 -6 2 -12
11 -12 19 0 19 7 0 34 -13 19 -13 21 1 19 20 -3 34 -25 27 -43 -3 -7 0 -13 6
-13 6 0 12 7 12 15 1 8 2 21 3 28 3 19 -14 36 -30 30 -10 -4 -15 0 -14 8 4 26
0 36 -15 36 -10 0 -14 -6 -10 -16z m-91 -95 c-3 -7 -11 -13 -19 -13 -10 0 -11
5 -4 19 11 20 31 15 23 -6z"/>
<path d="M1636 733 c-10 -10 -16 -12 -12 -5 8 14 -10 17 -19 3 -6 -11 33 -36
43 -27 3 3 2 6 -2 6 -4 0 -2 9 4 20 13 25 10 25 -14 3z"/>
<path d="M1912 729 c-7 -11 -18 -17 -24 -13 -7 4 -8 3 -4 -4 4 -7 2 -12 -5
-12 -7 0 -4 -7 7 -15 10 -8 26 -14 34 -14 12 0 12 2 -2 10 -9 5 -15 16 -12 24
4 8 10 13 14 10 12 -7 20 9 11 23 -4 8 -11 5 -19 -9z"/>
<path d="M1944 733 c3 -7 -3 -19 -14 -25 -15 -10 -16 -14 -5 -22 11 -9 7 -17
-17 -41 -27 -26 -29 -26 -18 -5 11 20 10 25 -6 37 -11 8 -18 23 -16 36 2 20 1
20 -8 5 -12 -20 -30 -24 -30 -7 0 5 5 7 12 3 7 -5 8 -3 4 5 -6 9 -12 9 -25 -3
-10 -9 -21 -13 -24 -9 -4 3 -7 2 -7 -4 0 -16 12 -23 24 -14 7 5 25 1 46 -10
19 -11 29 -19 22 -19 -6 0 -11 -3 -11 -7 4 -23 -4 -30 -31 -30 -28 0 -34 7
-31 33 1 6 -6 11 -14 11 -18 0 -18 -2 -5 -27 7 -13 7 -21 0 -25 -6 -4 -10 -3
-9 2 4 22 -2 32 -17 26 -11 -4 -12 -8 -4 -13 19 -12 -8 -17 -77 -15 -40 0 -60
-3 -57 -10 3 -5 -1 -2 -9 8 -15 18 -33 24 -22 8 3 -5 0 -13 -6 -17 -8 -4 -9
-3 -5 4 4 7 3 12 -3 12 -5 0 -13 -5 -16 -10 -4 -6 -11 -8 -16 -5 -5 4 -9 2 -9
-3 0 -11 79 -10 98 1 7 5 12 3 12 -4 0 -8 4 -8 13 -1 8 7 18 7 27 2 8 -5 18
-6 24 -3 8 5 76 11 174 16 12 1 22 5 22 9 0 4 5 8 11 8 5 0 7 -5 3 -12 -5 -7
-3 -8 6 -3 7 4 26 8 42 7 30 -1 35 18 7 26 -11 3 -11 2 -1 -6 9 -6 3 -9 -18
-9 -20 0 -26 3 -18 9 10 6 10 8 -2 9 -9 0 -7 4 8 11 20 10 31 29 15 27 -27 -4
-31 3 -13 21 24 24 26 37 5 37 -9 0 -14 -6 -11 -14z"/>
<path d="M1967 719 c-9 -17 -13 -27 -7 -24 18 11 22 -19 4 -33 -18 -14 -18
-14 3 -8 15 5 26 1 37 -16 13 -18 16 -19 16 -5 0 9 -5 17 -11 17 -5 0 -7 5 -3
12 5 7 3 8 -6 3 -9 -6 -11 -4 -5 5 5 8 1 18 -10 27 -11 7 -13 13 -6 13 7 0 9
5 5 13 -6 9 -4 9 7 1 8 -6 21 -11 29 -11 8 -1 23 -4 33 -8 13 -5 16 -3 12 7
-3 8 -11 15 -18 16 -21 2 -42 7 -52 14 -6 4 -18 -7 -28 -23z"/>
<path d="M2070 725 c0 -8 5 -15 10 -15 6 0 10 -5 10 -11 0 -5 -4 -7 -10 -4 -5
3 -10 -3 -10 -14 0 -12 5 -21 11 -21 5 0 8 4 4 9 -3 5 -1 12 4 15 5 4 8 -1 7
-10 -1 -9 -11 -21 -21 -26 -13 -8 -16 -8 -10 2 5 9 1 11 -16 6 -13 -3 -19 -3
-12 0 7 3 9 13 6 22 -4 15 -3 15 6 2 7 -10 11 -11 11 -3 0 7 -9 17 -20 23 -15
8 -20 8 -20 -1 0 -8 -4 -8 -15 1 -9 7 -6 -3 7 -27 20 -37 24 -39 62 -38 28 2
40 7 38 15 -3 11 0 11 12 0 13 -10 16 -10 16 4 0 9 -3 15 -7 15 -18 -3 -36 1
-30 7 6 7 -19 64 -28 64 -3 0 -5 -7 -5 -15z"/>
<path d="M2218 718 c-16 -24 -48 -34 -48 -16 0 5 -5 6 -10 3 -8 -5 -7 -11 1
-21 9 -11 14 -12 19 -4 5 8 9 7 13 -4 8 -20 31 -20 51 0 19 19 20 25 3 48 -13
17 -14 17 -29 -6z m24 -17 c-8 -4 -12 -12 -10 -16 1 -5 -5 -9 -14 -11 -10 -1
-18 -1 -18 1 0 9 33 35 43 35 8 0 8 -3 -1 -9z"/>
<path d="M1300 719 c0 -5 -5 -7 -12 -3 -6 4 -8 3 -4 -4 3 -6 2 -13 -4 -17 -13
-8 -13 -25 1 -25 5 0 7 6 3 13 -6 10 -4 10 7 0 7 -7 20 -13 29 -13 13 1 13 2
-2 10 -10 6 -14 18 -11 30 3 11 3 20 -1 20 -3 0 -6 -5 -6 -11z"/>
<path d="M1350 720 c0 -5 5 -10 10 -10 6 0 10 5 10 10 0 6 -4 10 -10 10 -5 0
-10 -4 -10 -10z"/>
<path d="M1497 724 c-3 -3 -3 -12 0 -20 5 -14 -13 -19 -46 -14 -12 1 -12 -1
-3 -13 6 -7 9 -16 6 -19 -2 -3 2 -8 11 -12 9 -3 13 -2 10 4 -3 6 0 10 7 10 10
0 9 3 -2 11 -13 9 -13 10 0 6 9 -2 14 -13 12 -26 -3 -22 -3 -22 15 -4 16 15
17 19 4 27 -12 8 -12 11 2 21 14 10 15 14 4 24 -8 6 -16 8 -20 5z"/>
<path d="M1576 722 c-3 -6 1 -13 10 -16 23 -9 28 -2 10 13 -8 7 -17 8 -20 3z"/>
<path d="M1656 722 c-3 -5 10 -16 29 -25 22 -10 33 -22 29 -30 -3 -8 2 -14 11
-14 11 0 13 6 9 20 -5 16 -3 19 11 14 9 -4 19 -7 22 -7 2 0 -3 -8 -13 -17 -10
-10 -20 -16 -22 -15 -3 2 -9 -2 -13 -10 -7 -11 -9 -11 -9 1 0 10 -3 11 -14 2
-11 -9 -16 -9 -21 0 -6 8 -10 7 -17 -2 -6 -10 -7 -7 -3 8 5 17 3 21 -7 18 -8
-3 -14 -13 -15 -23 -1 -15 8 -18 57 -18 32 0 57 3 55 6 -5 8 37 45 48 42 4 -1
0 9 -9 23 -15 23 -17 24 -40 8 -24 -15 -27 -15 -54 5 -16 12 -31 18 -34 14z"/>
<path d="M1324 711 c4 -6 2 -11 -5 -11 -7 0 -4 -6 7 -14 16 -12 17 -15 4 -21
-9 -3 -16 -15 -17 -26 -2 -18 0 -19 14 -7 12 9 15 10 9 1 -4 -7 -3 -13 3 -13
18 0 23 20 7 26 -20 8 -11 24 12 24 13 0 14 -2 3 -9 -8 -5 -9 -11 -3 -15 23
-14 24 18 1 36 -20 15 -21 17 -4 12 25 -9 18 -1 -14 16 -15 8 -21 8 -17 1z"/>
<path d="M993 696 c2 -6 0 -20 -6 -31 -10 -19 -9 -19 10 -2 11 9 23 14 26 10
4 -3 7 -1 7 5 0 5 -6 13 -12 15 -10 4 -10 6 -1 6 17 1 24 -14 17 -34 -5 -13
-9 -14 -15 -3 -6 9 -8 6 -7 -8 2 -15 9 -21 25 -21 18 0 21 2 13 12 -8 10 -7
16 4 22 11 6 12 11 3 23 -14 18 -70 23 -64 6z"/>
<path d="M1080 695 c-7 -8 -9 -15 -4 -15 5 0 0 -7 -10 -15 -12 -9 -15 -15 -7
-15 8 0 11 -6 7 -16 -3 -8 -2 -12 4 -9 6 3 10 4 10 1 0 -3 -9 -10 -20 -16 -16
-8 -20 -8 -18 2 2 7 -4 11 -12 9 -19 -5 -41 -5 -60 0 -9 2 -14 -2 -12 -11 2
-12 -1 -11 -11 2 -12 15 -16 16 -33 3 -10 -8 -17 -15 -14 -16 28 -6 70 -6 70
2 0 5 5 9 11 9 5 0 8 -4 4 -9 -3 -6 3 -9 14 -8 11 0 17 5 15 9 -3 4 0 8 5 8 6
0 11 -5 11 -11 0 -6 7 -9 15 -5 8 3 15 0 15 -7 0 -7 9 2 20 18 21 32 26 50 11
40 -5 -3 -13 0 -17 7 -4 7 -4 10 1 6 4 -4 14 0 22 10 8 9 12 12 8 5 -3 -8 2
-11 15 -8 11 2 18 0 15 -6 -4 -5 -11 -7 -16 -4 -5 4 -9 0 -9 -7 0 -8 10 -14
21 -15 12 -1 19 1 15 4 -3 3 -1 12 5 20 9 9 8 13 0 14 -11 2 -25 5 -38 9 -5 1
-12 2 -17 1 -5 -1 -6 5 -3 14 8 19 3 19 -13 0z"/>
<path d="M1156 702 c-2 -4 -1 -14 4 -22 5 -9 5 -19 -2 -27 -7 -9 -7 -13 0 -13
6 0 17 9 25 21 8 11 18 16 21 11 3 -6 0 -13 -6 -15 -10 -4 -9 -6 1 -6 8 -1 22
6 32 15 13 12 19 12 25 3 4 -7 3 -10 -4 -5 -6 3 -13 2 -17 -4 -5 -8 8 -15 18
-8 1 1 12 -4 24 -10 14 -8 24 -9 28 -2 3 5 1 10 -5 10 -6 0 -8 6 -4 13 5 9 4
9 -6 0 -10 -9 -17 -7 -30 10 -15 18 -20 19 -33 9 -10 -9 -17 -10 -22 -3 -10
17 -43 32 -49 23z"/>
<path d="M1523 689 c-15 -5 -15 -6 0 -12 8 -3 18 -1 21 6 3 9 5 9 5 0 1 -6 -3
-15 -9 -18 -5 -3 -10 -10 -10 -16 0 -5 9 -4 19 3 11 7 18 15 15 19 -5 9 15 23
22 16 2 -2 -2 -17 -11 -33 -8 -16 -15 -23 -15 -15 0 12 -3 12 -17 -1 -10 -8
-29 -13 -43 -11 -14 2 -31 4 -37 5 -12 1 -17 12 -14 31 0 4 -4 7 -10 7 -6 0
-8 -7 -5 -16 3 -8 2 -13 -3 -10 -5 3 -12 -1 -15 -10 -4 -12 -1 -14 14 -9 11 4
20 2 20 -4 0 -6 3 -10 8 -10 20 3 32 -2 26 -12 -4 -8 -9 -7 -15 2 -6 10 -9 10
-9 2 0 -21 18 -24 36 -6 9 10 26 18 38 18 12 0 31 6 44 13 12 7 27 10 32 7 5
-3 11 -1 14 4 9 14 -20 21 -35 8 -7 -7 -5 -2 5 11 20 23 32 30 20 10 -5 -7 -3
-8 6 -3 7 4 26 8 41 7 16 0 29 4 29 9 0 11 4 10 -82 12 -37 2 -75 0 -85 -4z"/>
<path d="M1819 685 c-7 -35 -2 -49 19 -48 37 2 38 3 12 19 -14 8 -17 13 -7 10
9 -3 17 -3 17 -1 0 7 -40 26 -41 20z"/>
<path d="M1371 639 c-18 -23 -36 -37 -40 -31 -3 5 -14 8 -23 6 -10 -1 -18 3
-18 9 0 15 -13 0 -16 -18 -1 -8 2 -13 6 -10 5 3 12 1 15 -5 5 -8 11 -8 20 0
10 8 14 7 18 -2 4 -8 6 -9 6 -1 1 6 10 9 21 6 12 -3 20 0 20 6 0 7 5 9 10 6 6
-4 8 -10 6 -14 -3 -4 9 -5 25 -3 29 4 36 26 8 28 -28 2 -30 4 -18 25 21 40 -6
38 -40 -2z m24 1 c-4 -6 -1 -19 7 -28 12 -15 11 -16 -4 -3 -15 11 -21 11 -35
0 -10 -7 -7 -1 6 14 25 27 38 36 26 17z"/>
<path d="M1687 666 c-11 -8 -14 -17 -8 -20 5 -4 15 3 21 14 13 23 11 24 -13 6z"/>
<path d="M810 651 c-8 -6 -19 -7 -25 -4 -5 4 -7 3 -3 -2 4 -4 3 -15 -2 -24 -7
-15 -2 -17 38 -16 26 0 53 -3 60 -8 8 -7 12 -4 12 7 0 10 -4 14 -10 11 -5 -3
-10 0 -10 7 0 9 -3 9 -10 -2 -6 -10 -10 -11 -10 -2 0 6 -3 11 -7 11 -27 -4
-35 1 -23 16 14 17 11 19 -10 6z m20 -36 c0 -2 -9 -3 -19 -2 -11 0 -18 5 -15
9 4 6 34 0 34 -7z"/>
<path d="M1165 634 c-10 -8 -29 -12 -41 -10 -18 4 -21 1 -17 -12 4 -9 11 -20
16 -24 13 -8 37 1 37 14 0 6 -8 4 -17 -3 -16 -13 -17 -12 -4 3 7 10 17 16 21
13 5 -3 10 0 12 7 3 7 7 5 11 -6 4 -10 3 -15 -3 -11 -6 3 -10 2 -10 -3 0 -6 6
-12 14 -15 9 -4 13 0 11 11 -1 9 2 22 7 28 13 18 -15 24 -37 8z"/>
<path d="M1214 633 c-13 -22 -7 -43 12 -43 10 0 12 5 7 13 -4 6 -6 20 -5 30 2
9 2 17 0 17 -2 0 -8 -8 -14 -17z"/>
<path d="M1246 629 c2 -4 -2 -10 -8 -12 -10 -4 -10 -6 0 -6 6 -1 12 -8 12 -18
0 -23 10 -11 15 19 3 17 0 25 -10 25 -8 0 -12 -4 -9 -8z"/>
<path d="M1085 600 c-3 -5 -1 -10 4 -10 6 0 11 5 11 10 0 6 -2 10 -4 10 -3 0
-8 -4 -11 -10z"/>
<path d="M1510 600 c0 -5 5 -10 11 -10 5 0 7 5 4 10 -3 6 -8 10 -11 10 -2 0
-4 -4 -4 -10z"/>
</g>
</svg>
